<svg xmlns="http://www.w3.org/2000/svg" viewBox="0 0 24 24">
    <g id="ICON_ADD-SQUARE" fill="none">
        <path d="M2 12C2 7.28595 2 4.92893 3.46447 3.46447C4.92893 2 7.28595 2 12 2C16.714 2 19.0711 2 20.5355 3.46447C22 4.92893 22 7.28595 22 12C22 16.714 22 19.0711 20.5355 20.5355C19.0711 22 16.714 22 12 22C7.28595 22 4.92893 22 3.46447 20.5355C2 19.0711 2 16.714 2 12Z" stroke-width="1.5"/>
        <path d="M15 12L12 12M12 12L9 12M12 12L12 9M12 12L12 15" stroke-width="1.5" stroke-linecap="round"/>
    </g>

    <g id="ICON_DELETE">
        <path d="M2 12C2 7.28595 2 4.92893 3.46447 3.46447C4.92893 2 7.28595 2 12 2C16.714 2 19.0711 2 20.5355 3.46447C22 4.92893 22 7.28595 22 12C22 16.714 22 19.0711 20.5355 20.5355C19.0711 22 16.714 22 12 22C7.28595 22 4.92893 22 3.46447 20.5355C2 19.0711 2 16.714 2 12Z" stroke-width="1.5"/>
        <path d="M14.5 9.50002L9.5 14.5M9.49998 9.5L14.5 14.5" stroke-width="1.5" stroke-linecap="round"/>
    </g>

    <g id="ICON_DANGER">
        <path d="M12 7V13" stroke-width="1.5" stroke-linecap="round"/>
        <circle cx="12" cy="16" r="1"/>
        <path d="M2 12C2 7.28595 2 4.92893 3.46447 3.46447C4.92893 2 7.28595 2 12 2C16.714 2 19.0711 2 20.5355 3.46447C22 4.92893 22 7.28595 22 12C22 16.714 22 19.0711 20.5355 20.5355C19.0711 22 16.714 22 12 22C7.28595 22 4.92893 22 3.46447 20.5355C2 19.0711 2 16.714 2 12Z" stroke-width="1.5"/>
    </g>

    <g id="ICON_CLOSE">
        <path d="M6.96967 16.4697C6.67678 16.7626 6.67678 17.2374 6.96967 17.5303C7.26256 17.8232 7.73744 17.8232 8.03033 17.5303L6.96967 16.4697ZM13.0303 12.5303C13.3232 12.2374 13.3232 11.7626 13.0303 11.4697C12.7374 11.1768 12.2626 11.1768 11.9697 11.4697L13.0303 12.5303ZM11.9697 11.4697C11.6768 11.7626 11.6768 12.2374 11.9697 12.5303C12.2626 12.8232 12.7374 12.8232 13.0303 12.5303L11.9697 11.4697ZM18.0303 7.53033C18.3232 7.23744 18.3232 6.76256 18.0303 6.46967C17.7374 6.17678 17.2626 6.17678 16.9697 6.46967L18.0303 7.53033ZM13.0303 11.4697C12.7374 11.1768 12.2626 11.1768 11.9697 11.4697C11.6768 11.7626 11.6768 12.2374 11.9697 12.5303L13.0303 11.4697ZM16.9697 17.5303C17.2626 17.8232 17.7374 17.8232 18.0303 17.5303C18.3232 17.2374 18.3232 16.7626 18.0303 16.4697L16.9697 17.5303ZM11.9697 12.5303C12.2626 12.8232 12.7374 12.8232 13.0303 12.5303C13.3232 12.2374 13.3232 11.7626 13.0303 11.4697L11.9697 12.5303ZM8.03033 6.46967C7.73744 6.17678 7.26256 6.17678 6.96967 6.46967C6.67678 6.76256 6.67678 7.23744 6.96967 7.53033L8.03033 6.46967ZM8.03033 17.5303L13.0303 12.5303L11.9697 11.4697L6.96967 16.4697L8.03033 17.5303ZM13.0303 12.5303L18.0303 7.53033L16.9697 6.46967L11.9697 11.4697L13.0303 12.5303ZM11.9697 12.5303L16.9697 17.5303L18.0303 16.4697L13.0303 11.4697L11.9697 12.5303ZM13.0303 11.4697L8.03033 6.46967L6.96967 7.53033L11.9697 12.5303L13.0303 11.4697Z"/>
    </g>

    <g id="ICON_SEARCH">
        <path fill-rule="evenodd" clip-rule="evenodd" d="M11.5 2.75C6.66751 2.75 2.75 6.66751 2.75 11.5C2.75 16.3325 6.66751 20.25 11.5 20.25C16.3325 20.25 20.25 16.3325 20.25 11.5C20.25 6.66751 16.3325 2.75 11.5 2.75ZM1.25 11.5C1.25 5.83908 5.83908 1.25 11.5 1.25C17.1609 1.25 21.75 5.83908 21.75 11.5C21.75 14.0605 20.8111 16.4017 19.2589 18.1982L22.5303 21.4697C22.8232 21.7626 22.8232 22.2374 22.5303 22.5303C22.2374 22.8232 21.7626 22.8232 21.4697 22.5303L18.1982 19.2589C16.4017 20.8111 14.0605 21.75 11.5 21.75C5.83908 21.75 1.25 17.1609 1.25 11.5Z"/>
    </g>

    <g id="ICON_CHECKMARK">
        <path fill-rule="evenodd" clip-rule="evenodd" d="M21.5821 5.54289C21.9726 5.93342 21.9726 6.56658 21.5821 6.95711L10.2526 18.2867C9.86452 18.6747 9.23627 18.6775 8.84475 18.293L2.29929 11.8644C1.90527 11.4774 1.89956 10.8443 2.28655 10.4503C2.67354 10.0562 3.30668 10.0505 3.70071 10.4375L9.53911 16.1717L20.1679 5.54289C20.5584 5.15237 21.1916 5.15237 21.5821 5.54289Z"/>
    </g>
</svg>